<?xml version="1.0" standalone="no"?>
<!DOCTYPE svg PUBLIC "-//W3C//DTD SVG 20010904//EN"
 "http://www.w3.org/TR/2001/REC-SVG-20010904/DTD/svg10.dtd">
<svg version="1.0" xmlns="http://www.w3.org/2000/svg"
 width="192.000000pt" height="192.000000pt" viewBox="0 0 192.000000 192.000000"
 preserveAspectRatio="xMidYMid meet">
<metadata>
Created by potrace 1.11, written by Peter Selinger 2001-2013
</metadata>
<g transform="translate(0.000000,192.000000) scale(0.100000,-0.100000)"
fill="#000000" stroke="none">
<path d="M1032 1828 c-7 -7 -12 -17 -12 -22 0 -7 -48 -11 -138 -11 -112 0
-151 -4 -217 -23 -160 -46 -290 -137 -416 -289 -132 -161 -183 -301 -183 -503
0 -152 23 -245 94 -386 26 -51 45 -96 41 -100 -3 -4 -1 -4 5 -1 6 3 26 -15 45
-40 52 -70 172 -161 279 -210 52 -24 102 -48 110 -52 44 -24 134 -33 280 -29
l155 4 126 62 c137 67 232 139 307 231 28 35 62 63 92 77 26 12 63 38 82 57
l36 36 73 -23 c41 -13 86 -26 102 -30 l27 -6 0 105 0 105 -74 22 -74 23 -11
50 c-6 28 -25 70 -41 95 -22 33 -30 57 -30 90 -1 131 -81 328 -185 452 -96
115 -270 228 -400 259 -27 6 -56 18 -64 25 -12 11 -11 12 9 7 19 -5 22 -3 17
11 -4 10 -7 20 -7 22 0 8 -16 4 -28 -8z m-41 -59 c161 -22 307 -92 431 -208
40 -38 88 -90 106 -117 26 -38 27 -42 5 -15 -92 112 -191 200 -273 241 -35 17
-16 1 53 -45 124 -82 247 -245 298 -394 24 -68 23 -76 -2 -28 -14 27 -26 37
-44 37 -14 0 -25 -2 -25 -3 0 -2 9 -30 21 -63 14 -39 22 -91 25 -154 2 -66 1
-87 -6 -70 -9 24 -9 24 -7 -5 2 -27 6 -30 39 -33 24 -2 39 -9 42 -20 3 -9 4
48 2 128 -1 89 0 128 5 100 10 -57 9 -226 -1 -265 -7 -29 -8 -29 -10 -5 -2 21
-3 22 -7 5 -35 -159 -76 -243 -168 -353 -35 -42 -70 -82 -77 -87 -110 -88
-187 -130 -313 -172 -105 -35 -77 -36 34 -2 186 58 339 182 438 354 20 36 39
62 41 60 8 -8 -88 -159 -131 -206 -207 -226 -509 -310 -820 -228 -23 6 -35 14
-31 21 4 6 3 8 -3 5 -14 -9 -73 12 -73 25 0 6 6 5 15 -2 9 -7 18 -10 21 -7 7
6 -185 132 -201 132 -5 0 -10 5 -10 12 0 6 -4 15 -9 20 -6 5 -6 2 -1 -7 5 -8
5 -12 0 -8 -4 4 -13 18 -20 30 -6 13 -17 22 -24 20 -7 -1 -10 2 -7 7 6 10 -11
26 -29 26 -5 0 -12 11 -16 25 -4 14 -7 19 -8 13 -1 -8 -8 -6 -21 7 -11 11 -19
23 -18 27 3 16 -15 43 -25 36 -6 -4 -7 -1 -2 6 7 12 -24 96 -32 87 -3 -2 1
-15 7 -28 7 -12 8 -18 2 -13 -16 15 -61 151 -68 205 l-6 49 33 3 34 3 -3 58
c-3 42 1 65 13 83 24 37 34 20 37 -66 l3 -75 29 0 29 0 1 109 c1 94 -1 110
-17 120 -13 8 -24 7 -47 -6 -35 -20 -37 -15 -10 48 11 26 19 48 17 50 -2 2
-17 1 -34 -2 -26 -5 -33 -14 -49 -60 -22 -65 -29 -64 -14 2 30 135 146 316
265 414 128 106 291 176 384 166 37 -4 41 -4 21 4 -23 9 -22 9 10 7 19 -2 49
0 65 4 44 10 45 10 136 -2z m640 -527 c29 -85 21 -87 -10 -2 -43 114 -43 117
-26 86 9 -16 25 -53 36 -84z m-20 -559 c-12 -20 -14 -14 -5 12 4 9 9 14 11 11
3 -2 0 -13 -6 -23z m-1296 -253 c10 -11 16 -20 13 -20 -3 0 -13 9 -23 20 -10
11 -16 20 -13 20 3 0 13 -9 23 -20z m121 -96 c1 -9 -1 -13 -4 -9 -4 4 -7 10
-7 13 0 4 -4 14 -9 22 -7 12 -6 13 4 3 8 -7 15 -20 16 -29z m29 -3 c3 -5 1
-12 -5 -16 -5 -3 -10 1 -10 9 0 18 6 21 15 7z m53 -43 c-10 -6 -10 -8 1 -8 8
0 12 -3 9 -6 -9 -8 -59 27 -53 37 3 4 17 3 31 -3 18 -8 21 -14 12 -20z"/>
<path d="M1048 1743 c7 -3 16 -2 19 1 4 3 -2 6 -13 5 -11 0 -14 -3 -6 -6z"/>
<path d="M1170 1706 c0 -2 7 -7 16 -10 8 -3 12 -2 9 4 -6 10 -25 14 -25 6z"/>
<path d="M552 1282 c-22 -15 -51 -277 -37 -340 6 -30 7 -31 68 -30 75 1 102
23 112 92 15 95 -13 176 -60 176 -21 0 -24 5 -30 55 -7 56 -20 67 -53 47z m45
-99 c-3 -10 -5 -2 -5 17 0 19 2 27 5 18 2 -10 2 -26 0 -35z m23 -128 c0 -49
-9 -68 -26 -54 -17 14 -18 71 -2 87 17 17 28 5 28 -33z"/>
<path d="M1144 1238 c3 -29 9 -115 13 -190 l6 -138 29 0 c15 0 28 5 28 10 0 6
8 5 20 -2 17 -11 26 -10 50 4 27 16 30 16 30 1 0 -9 3 -13 6 -10 13 12 16 157
4 191 -18 56 -58 80 -101 62 -13 -6 -17 5 -25 56 -8 60 -11 63 -38 66 l-29 4
7 -54z m120 -164 c10 -27 7 -61 -8 -73 -12 -10 -17 -8 -25 8 -12 22 -15 64 -4
74 11 12 31 7 37 -9z"/>
<path d="M1050 1259 c-9 -16 -8 -26 5 -45 20 -31 59 -29 63 3 8 53 -45 85 -68
42z"/>
<path d="M732 1215 c0 -16 2 -22 5 -12 2 9 2 23 0 30 -3 6 -5 -1 -5 -18z"/>
<path d="M872 1220 c0 -14 2 -19 5 -12 2 6 2 18 0 25 -3 6 -5 1 -5 -13z"/>
<path d="M971 1224 c0 -11 3 -14 6 -6 3 7 2 16 -1 19 -3 4 -6 -2 -5 -13z"/>
<path d="M772 1210 c0 -14 2 -19 5 -12 2 6 2 18 0 25 -3 6 -5 1 -5 -13z"/>
<path d="M801 1214 c0 -11 3 -14 6 -6 3 7 2 16 -1 19 -3 4 -6 -2 -5 -13z"/>
<path d="M784 1179 c-76 -37 -83 -207 -10 -254 31 -21 91 -13 105 13 16 32 -2
57 -44 57 -21 0 -40 5 -42 11 -4 13 28 24 69 24 21 0 29 6 34 24 7 31 -27 111
-54 125 -24 13 -30 13 -58 0z m34 -87 c2 -7 -3 -12 -12 -12 -9 0 -16 7 -16 16
0 17 22 14 28 -4z"/>
<path d="M938 1182 l-27 -3 4 -132 5 -132 30 -3 29 -3 3 78 c3 77 3 78 31 81
25 3 27 6 27 52 0 55 -9 66 -36 45 -25 -19 -32 -18 -36 3 -2 12 -11 16 -30 14z"/>
<path d="M1054 1121 c2 -31 4 -91 5 -133 l1 -78 30 0 31 0 -3 131 -3 132 -32
2 -32 3 3 -57z"/>
<path d="M360 1157 c-87 -44 -95 -202 -11 -236 22 -10 34 -10 50 -1 14 7 21 7
21 0 0 -5 13 -10 29 -10 l28 0 7 103 c3 56 7 113 9 127 1 19 -3 26 -21 28 -13
2 -29 -1 -35 -7 -8 -6 -18 -6 -27 -1 -19 12 -20 12 -50 -3z m53 -89 c13 -19 1
-67 -18 -75 -38 -14 -59 45 -28 79 18 21 32 20 46 -4z"/>
<path d="M1369 1155 c-3 -2 -2 -30 2 -62 4 -32 8 -81 8 -109 1 -43 5 -53 26
-64 21 -11 29 -11 52 1 16 7 31 15 36 17 4 2 7 -4 7 -13 0 -12 7 -15 28 -13
l27 3 -1 102 c0 110 -9 133 -51 133 -21 0 -24 -4 -20 -22 22 -91 15 -147 -15
-135 -10 3 -17 28 -22 78 -3 40 -12 77 -19 81 -13 9 -51 11 -58 3z"/>
<path d="M1064 879 c-52 -26 -81 -149 -51 -222 13 -30 21 -37 44 -37 38 0 53
16 53 56 0 27 -3 31 -20 27 -17 -5 -20 0 -20 30 0 48 9 67 30 67 10 0 20 8 23
18 2 9 8 24 11 33 5 11 -1 19 -19 27 -14 7 -27 12 -28 11 -1 0 -11 -5 -23 -10z"/>
<path d="M1384 883 c-17 -3 -24 -16 -33 -61 -7 -31 -21 -85 -33 -120 -11 -35
-18 -65 -16 -67 2 -2 13 -2 25 1 20 6 48 57 68 124 10 33 24 50 41 50 18 0 11
-32 -23 -108 l-23 -53 27 3 c24 3 34 15 68 83 40 78 65 105 65 67 0 -10 -13
-46 -30 -78 -16 -32 -30 -60 -30 -61 0 -12 46 1 57 15 24 30 83 151 83 170 0
42 -42 54 -82 23 -24 -19 -24 -19 -36 0 -14 22 -41 25 -67 5 -15 -11 -22 -11
-30 -2 -5 7 -19 10 -31 9z"/>
<path d="M1195 864 c-44 -45 -68 -149 -45 -204 10 -25 18 -30 46 -30 82 0 157
158 108 228 -19 27 -84 31 -109 6z m61 -69 c13 -33 -24 -103 -47 -90 -14 9
-11 58 7 83 18 26 32 28 40 7z"/>
<path d="M910 705 c-14 -37 -13 -57 6 -83 15 -22 17 -23 35 -6 15 14 19 29 17
63 -3 39 -6 46 -25 49 -17 3 -26 -3 -33 -23z"/>
<path d="M713 515 c0 -22 2 -30 4 -17 2 12 2 30 0 40 -3 9 -5 -1 -4 -23z"/>
<path d="M611 514 c0 -11 3 -14 6 -6 3 7 2 16 -1 19 -3 4 -6 -2 -5 -13z"/>
<path d="M822 500 c0 -14 2 -19 5 -12 2 6 2 18 0 25 -3 6 -5 1 -5 -13z"/>
<path d="M862 500 c0 -14 2 -19 5 -12 2 6 2 18 0 25 -3 6 -5 1 -5 -13z"/>
<path d="M911 504 c0 -11 3 -14 6 -6 3 7 2 16 -1 19 -3 4 -6 -2 -5 -13z"/>
<path d="M951 504 c0 -11 3 -14 6 -6 3 7 2 16 -1 19 -3 4 -6 -2 -5 -13z"/>
<path d="M630 240 c0 -5 4 -10 9 -10 6 0 13 5 16 10 3 6 -1 10 -9 10 -9 0 -16
-4 -16 -10z"/>
<path d="M290 1810 c-27 -27 -14 -46 24 -36 29 7 34 27 12 45 -12 10 -19 8
-36 -9z"/>
<path d="M12 1688 c-7 -7 -12 -20 -12 -30 0 -15 3 -16 28 -5 27 12 42 25 42
40 0 12 -45 8 -58 -5z"/>
<path d="M1834 965 c-9 -22 3 -30 22 -15 13 12 17 11 25 -1 8 -11 9 -10 7 6
-4 25 -46 33 -54 10z"/>
<path d="M1766 952 c-9 -15 19 -33 38 -26 9 4 15 12 13 18 -5 14 -43 20 -51 8z"/>
</g>
</svg>
